<svg width="42" height="43" viewBox="0 0 42 43" fill="none" xmlns="http://www.w3.org/2000/svg">
<path fill-rule="evenodd" clip-rule="evenodd" d="M3.10372 0.000134124C1.38954 0.000134124 0 1.35613 0 3.02784V39.2389C0 40.9112 1.38954 42.2666 3.10372 42.2666H38.8963C40.6104 42.2666 42 40.9112 42 39.2389V3.02784C42 1.35613 40.6104 0.000134124 38.8963 0.000134124H3.10372ZM16.2412 35.3816H22.5848V24.7234C22.5848 24.1529 22.6261 23.5831 22.7936 23.1753C23.2522 22.0356 24.296 20.8553 26.0484 20.8553C28.3439 20.8553 29.2622 22.6055 29.2622 25.1712V35.3816H35.6054V24.4382C35.6054 18.5759 32.4757 15.8481 28.302 15.8481C24.9369 15.8481 23.4281 17.6976 22.585 18.9981V19.0639H22.5427C22.5566 19.0421 22.5707 19.0202 22.585 18.9981V16.2959H16.2414C16.3246 18.0868 16.2412 35.3816 16.2412 35.3816ZM9.56001 13.6901C11.7722 13.6901 13.1491 12.2245 13.1491 10.393C13.1079 8.52024 11.7722 7.09534 9.60197 7.09534C7.43198 7.09534 6.01317 8.52024 6.01317 10.393C6.01317 12.2245 7.38978 13.6901 9.51866 13.6901H9.56001ZM12.7319 16.2959V35.3816H6.38817V16.2959H12.7319Z" fill="#00A9DE"/>
</svg>
