<svg width="40" height="39" viewBox="0 0 40 39" fill="none" xmlns="http://www.w3.org/2000/svg">
<path fill-rule="evenodd" clip-rule="evenodd" d="M19.8468 0C8.87205 0 0 8.93745 0 19.9943C0 28.8326 5.68463 36.3141 13.5707 38.962C14.5567 39.1611 14.9178 38.5318 14.9178 38.0025C14.9178 37.5389 14.8853 35.9501 14.8853 34.2946C9.36442 35.4866 8.21474 31.9112 8.21474 31.9112C7.32749 29.5939 6.01288 28.9984 6.01288 28.9984C4.20588 27.7735 6.1445 27.7735 6.1445 27.7735C8.14893 27.906 9.2007 29.8259 9.2007 29.8259C10.9748 32.8711 13.8336 32.0107 14.9836 31.481C15.1478 30.1899 15.6739 29.2962 16.2324 28.7997C11.8291 28.3362 7.19628 26.6149 7.19628 18.9348C7.19628 16.75 7.9844 14.9625 9.2332 13.5723C9.03617 13.0759 8.34596 11.0231 9.43064 8.27568C9.43064 8.27568 11.1064 7.74593 14.8849 10.328C16.5026 9.89037 18.171 9.66773 19.8468 9.66586C21.5226 9.66586 23.2309 9.89782 24.8083 10.328C28.5873 7.74593 30.263 8.27568 30.263 8.27568C31.3477 11.0231 30.6571 13.0759 30.4601 13.5723C31.7418 14.9625 32.4974 16.75 32.4974 18.9348C32.4974 26.6149 27.8645 28.3029 23.4283 28.7997C24.1514 29.4286 24.7754 30.6201 24.7754 32.5071C24.7754 35.1884 24.7429 37.3403 24.7429 38.0021C24.7429 38.5318 25.1045 39.1611 26.0901 38.9624C33.9761 36.3137 39.6608 28.8326 39.6608 19.9943C39.6933 8.93745 30.7887 0 19.8468 0Z" fill="url(#paint0_linear_594_45)"/>
<defs>
<linearGradient id="paint0_linear_594_45" x1="19.8304" y1="0" x2="19.8304" y2="39" gradientUnits="userSpaceOnUse">
<stop stop-color="#E9E9E9"/>
<stop offset="1" stop-color="#C3C3C3"/>
</linearGradient>
</defs>
</svg>
