<svg width="40" height="39" viewBox="0 0 40 39" fill="none" xmlns="http://www.w3.org/2000/svg">
<path fill-rule="evenodd" clip-rule="evenodd" d="M20.1632 0C9.18845 0 0.316406 8.93745 0.316406 19.9943C0.316406 28.8326 6.00103 36.3141 13.8871 38.962C14.8731 39.1611 15.2342 38.5318 15.2342 38.0025C15.2342 37.5389 15.2017 35.9501 15.2017 34.2946C9.68083 35.4866 8.53115 31.9112 8.53115 31.9112C7.6439 29.5939 6.32928 28.9984 6.32928 28.9984C4.52229 27.7735 6.46091 27.7735 6.46091 27.7735C8.46533 27.906 9.51711 29.8259 9.51711 29.8259C11.2912 32.8711 14.15 32.0107 15.3 31.481C15.4642 30.1899 15.9903 29.2962 16.5489 28.7997C12.1455 28.3362 7.51268 26.6149 7.51268 18.9348C7.51268 16.75 8.3008 14.9625 9.54961 13.5723C9.35258 13.0759 8.66236 11.0231 9.74705 8.27568C9.74705 8.27568 11.4228 7.74593 15.2013 10.328C16.819 9.89037 18.4874 9.66773 20.1632 9.66586C21.839 9.66586 23.5473 9.89782 25.1247 10.328C28.9037 7.74593 30.5794 8.27568 30.5794 8.27568C31.6641 11.0231 30.9735 13.0759 30.7765 13.5723C32.0582 14.9625 32.8138 16.75 32.8138 18.9348C32.8138 26.6149 28.1809 28.3029 23.7447 28.7997C24.4678 29.4286 25.0918 30.6201 25.0918 32.5071C25.0918 35.1884 25.0593 37.3403 25.0593 38.0021C25.0593 38.5318 25.4209 39.1611 26.4065 38.9624C34.2925 36.3137 39.9772 28.8326 39.9772 19.9943C40.0097 8.93745 31.1051 0 20.1632 0Z" fill="url(#paint0_linear_594_44)"/>
<defs>
<linearGradient id="paint0_linear_594_44" x1="20.1468" y1="0" x2="20.1468" y2="39" gradientUnits="userSpaceOnUse">
<stop stop-color="#333333"/>
<stop offset="1" stop-color="#131313"/>
</linearGradient>
</defs>
</svg>
