<svg width="66" height="31" viewBox="0 0 66 31" fill="none" xmlns="http://www.w3.org/2000/svg">
<path d="M18.8482 5.81047C18.8444 7.13436 19.9359 7.57991 21.0658 7.34118C22.3782 7.06457 23.4293 6.39007 24.2191 5.31768C24.5919 4.81213 24.643 4.05635 23.8374 3.93762C23.1965 3.84315 22.7063 4.00911 22.1522 4.28998C21.8062 4.46615 21.4424 4.04996 21.5905 3.7091C21.6356 3.60526 21.7411 3.4976 21.9071 3.3861C22.8122 2.77714 24.3468 2.44266 25.2749 3.12694C26.5911 4.09592 26.0779 5.87686 25.2443 6.94542C24.4451 7.96929 23.4144 8.7072 22.1522 9.15914C21.0249 9.56256 19.5095 9.60469 18.5482 8.92551C17.2052 7.97695 17.0647 6.42709 17.698 5.00107C18.0741 4.15507 18.6848 3.35121 19.53 2.58947C21.2854 1.0077 23.5744 -0.0876721 25.9464 0.0055237C28.8329 0.120423 30.4632 2.25116 29.8134 5.08023C29.4534 6.64966 28.6955 7.99057 27.5397 9.10296C25.3821 11.1801 22.4101 12.6776 19.3665 12.855C18.2558 12.9202 17.112 12.795 16.1085 12.324C14.5995 11.6141 13.9152 10.1166 14.122 8.47485C14.2403 7.53693 14.6259 6.62115 15.2787 5.72749C15.2871 5.71595 15.2979 5.70642 15.3102 5.69957C15.3226 5.69273 15.3362 5.68875 15.3502 5.68791C15.4047 5.68451 15.4442 5.70706 15.4689 5.75557C15.4842 5.78536 15.4881 5.81643 15.4804 5.84877C15.1549 7.19692 14.7744 8.75061 15.7753 9.92385C16.812 11.1405 18.8508 10.8916 20.2896 10.4639C22.1841 9.8996 23.9225 9.01104 25.5047 7.79822C26.9728 6.67349 28.8559 4.35125 27.795 2.40691C27.1809 1.28218 25.8941 0.937481 24.6736 1.06004C23.1808 1.20898 21.8424 1.78901 20.6585 2.80012C19.7878 3.54441 18.8508 4.67042 18.8482 5.81047ZM24.6072 0.636189C24.6072 0.608694 24.6018 0.581469 24.5913 0.556067C24.5807 0.530665 24.5653 0.507584 24.5459 0.488142C24.5264 0.4687 24.5034 0.453279 24.478 0.442757C24.4526 0.432235 24.4253 0.426818 24.3978 0.426818C24.3423 0.426818 24.289 0.448877 24.2498 0.488142C24.2105 0.527407 24.1885 0.580661 24.1885 0.636189C24.1885 0.691718 24.2105 0.744974 24.2498 0.784239C24.289 0.823504 24.3423 0.845561 24.3978 0.845561C24.4253 0.845561 24.4526 0.840146 24.478 0.829624C24.5034 0.819102 24.5264 0.803681 24.5459 0.784239C24.5653 0.764797 24.5807 0.741716 24.5913 0.716313C24.6018 0.690911 24.6072 0.663684 24.6072 0.636189ZM27.8627 0.752365C27.8627 0.720538 27.85 0.690015 27.8275 0.66751C27.805 0.645004 27.7745 0.63236 27.7427 0.63236C27.7108 0.63236 27.6803 0.645004 27.6578 0.66751C27.6353 0.690015 27.6227 0.720538 27.6227 0.752365C27.6227 0.784193 27.6353 0.814718 27.6578 0.837223C27.6803 0.859729 27.7108 0.872371 27.7427 0.872371C27.7745 0.872371 27.805 0.859729 27.8275 0.837223C27.85 0.814718 27.8627 0.784193 27.8627 0.752365ZM28.0912 1.4507C28.0912 1.41887 28.0786 1.38835 28.056 1.36584C28.0335 1.34333 28.003 1.33069 27.9712 1.33069C27.9394 1.33069 27.9088 1.34333 27.8863 1.36584C27.8638 1.38835 27.8512 1.41887 27.8512 1.4507C27.8512 1.48252 27.8638 1.51305 27.8863 1.53555C27.9088 1.55806 27.9394 1.5707 27.9712 1.5707C28.003 1.5707 28.0335 1.55806 28.056 1.53555C28.0786 1.51305 28.0912 1.48252 28.0912 1.4507ZM21.2049 2.06094C21.2049 2.03344 21.1995 2.00622 21.189 1.98081C21.1785 1.95541 21.163 1.93233 21.1436 1.91289C21.1242 1.89345 21.1011 1.87802 21.0757 1.8675C21.0503 1.85698 21.023 1.85156 20.9955 1.85156C20.94 1.85156 20.8868 1.87362 20.8475 1.91289C20.8082 1.95215 20.7862 2.00541 20.7862 2.06094C20.7862 2.11646 20.8082 2.16972 20.8475 2.20898C20.8868 2.24825 20.94 2.27031 20.9955 2.27031C21.023 2.27031 21.0503 2.26489 21.0757 2.25437C21.1011 2.24385 21.1242 2.22843 21.1436 2.20898C21.163 2.18954 21.1785 2.16646 21.189 2.14106C21.1995 2.11566 21.2049 2.08843 21.2049 2.06094ZM28.6555 2.21413C28.6555 2.15861 28.6334 2.10535 28.5942 2.06609C28.5549 2.02682 28.5016 2.00476 28.4461 2.00476C28.3906 2.00476 28.3373 2.02682 28.2981 2.06609C28.2588 2.10535 28.2367 2.15861 28.2367 2.21413C28.2367 2.26966 28.2588 2.32292 28.2981 2.36218C28.3373 2.40145 28.3906 2.42351 28.4461 2.42351C28.5016 2.42351 28.5549 2.40145 28.5942 2.36218C28.6334 2.32292 28.6555 2.26966 28.6555 2.21413ZM20.1198 2.33159C20.067 2.34776 20.0355 2.3835 20.0253 2.43883C20.022 2.4557 20.0246 2.47316 20.0328 2.48812C20.041 2.50308 20.0542 2.51456 20.07 2.52053C20.1253 2.54096 20.1662 2.52606 20.1925 2.47585C20.2104 2.44095 20.2108 2.40436 20.1938 2.36606C20.1793 2.33286 20.1547 2.32137 20.1198 2.33159ZM23.8399 3.11801C23.817 3.16652 23.8204 3.21248 23.8501 3.25588C23.8561 3.26491 23.8642 3.27233 23.8737 3.27751C23.8833 3.28269 23.8939 3.28546 23.9047 3.28558C23.9155 3.28571 23.9262 3.28318 23.9359 3.27823C23.9455 3.27328 23.9538 3.26604 23.9599 3.25716C23.9914 3.21375 23.997 3.1678 23.9765 3.11928C23.9706 3.10621 23.9611 3.0951 23.949 3.08727C23.937 3.07944 23.923 3.07521 23.9086 3.07507C23.8943 3.07494 23.8802 3.07891 23.868 3.08652C23.8559 3.09412 23.8461 3.10505 23.8399 3.11801ZM29.5938 3.3427C29.5938 3.31087 29.5812 3.28035 29.5587 3.25784C29.5362 3.23534 29.5056 3.22269 29.4738 3.22269C29.4581 3.22269 29.4424 3.2258 29.4279 3.23183C29.4133 3.23786 29.4001 3.2467 29.389 3.25784C29.3778 3.26898 29.369 3.28221 29.3629 3.29677C29.3569 3.31133 29.3538 3.32694 29.3538 3.3427C29.3538 3.35846 29.3569 3.37406 29.3629 3.38862C29.369 3.40318 29.3778 3.41641 29.389 3.42755C29.4001 3.4387 29.4133 3.44754 29.4279 3.45357C29.4424 3.4596 29.4581 3.4627 29.4738 3.4627C29.5056 3.4627 29.5362 3.45006 29.5587 3.42755C29.5812 3.40505 29.5938 3.37453 29.5938 3.3427ZM19.7919 3.33044C19.7833 3.3206 19.7725 3.31286 19.7601 3.30766C19.7477 3.30245 19.734 3.29989 19.7197 3.30012C19.7054 3.30035 19.6908 3.30336 19.6768 3.30898C19.6628 3.3146 19.6496 3.32272 19.638 3.33288C19.6264 3.34304 19.6166 3.35504 19.6092 3.36819C19.6017 3.38134 19.5968 3.39539 19.5947 3.40953C19.5926 3.42367 19.5933 3.43763 19.5968 3.45061C19.6003 3.46359 19.6066 3.47533 19.6152 3.48517C19.6238 3.49501 19.6346 3.50275 19.647 3.50796C19.6594 3.51316 19.6732 3.51572 19.6875 3.51549C19.7018 3.51527 19.7163 3.51226 19.7304 3.50664C19.7444 3.50101 19.7576 3.49289 19.7692 3.48273C19.7808 3.47257 19.7906 3.46057 19.798 3.44742C19.8054 3.43427 19.8103 3.42022 19.8124 3.40608C19.8146 3.39194 19.8138 3.37798 19.8103 3.365C19.8068 3.35202 19.8006 3.34028 19.7919 3.33044ZM24.1885 3.48696C24.1796 3.49264 24.1724 3.50051 24.1674 3.5098C24.1625 3.5191 24.1601 3.5295 24.1603 3.54002C24.1606 3.55054 24.1635 3.56081 24.1689 3.56985C24.1743 3.57889 24.1819 3.5864 24.191 3.59165C24.2378 3.61718 24.2859 3.61505 24.3353 3.58526C24.3429 3.58056 24.3494 3.57428 24.3544 3.56685C24.3594 3.55941 24.3627 3.55099 24.3642 3.54216C24.3656 3.53332 24.3652 3.52428 24.3628 3.51564C24.3605 3.50699 24.3563 3.49896 24.3506 3.49207C24.3114 3.4444 24.2574 3.4427 24.1885 3.48696ZM23.0561 3.64399C23.0561 3.61216 23.0434 3.58164 23.0209 3.55913C22.9984 3.53663 22.9679 3.52398 22.9361 3.52398C22.9042 3.52398 22.8737 3.53663 22.8512 3.55913C22.8287 3.58164 22.8161 3.61216 22.8161 3.64399C22.8161 3.67582 22.8287 3.70634 22.8512 3.72884C22.8737 3.75135 22.9042 3.76399 22.9361 3.76399C22.9679 3.76399 22.9984 3.75135 23.0209 3.72884C23.0434 3.70634 23.0561 3.67582 23.0561 3.64399ZM25.2953 3.79974C25.2953 3.75538 25.2777 3.71285 25.2463 3.68148C25.215 3.65012 25.1724 3.6325 25.1281 3.6325C25.0837 3.6325 25.0412 3.65012 25.0098 3.68148C24.9785 3.71285 24.9608 3.75538 24.9608 3.79974C24.9608 3.84409 24.9785 3.88663 25.0098 3.918C25.0412 3.94936 25.0837 3.96698 25.1281 3.96698C25.1724 3.96698 25.215 3.94936 25.2463 3.918C25.2777 3.88663 25.2953 3.84409 25.2953 3.79974ZM22.2658 3.69378C22.2604 3.69692 22.2557 3.70135 22.2524 3.7067C22.2491 3.71204 22.2471 3.71813 22.2467 3.72442C22.2433 3.77889 22.2722 3.81463 22.3335 3.83166C22.3486 3.83595 22.3645 3.83621 22.3796 3.83239C22.3946 3.82857 22.4082 3.82083 22.419 3.80995C22.4607 3.7674 22.4663 3.72655 22.4356 3.68739C22.4177 3.66441 22.3939 3.65548 22.3641 3.66058C22.3292 3.66739 22.2965 3.67846 22.2658 3.69378ZM18.7793 4.50445C18.7257 4.55637 18.7167 4.60956 18.7525 4.66403C18.7612 4.67727 18.7731 4.68815 18.7871 4.69572C18.8011 4.70328 18.8167 4.70731 18.8326 4.70743C18.8484 4.70756 18.8641 4.70378 18.8782 4.69644C18.8923 4.6891 18.9043 4.67841 18.9133 4.66531C18.9414 4.62361 18.9474 4.58105 18.9312 4.53765C18.9256 4.52328 18.9166 4.51051 18.9049 4.50048C18.8932 4.49046 18.8792 4.48349 18.8642 4.4802C18.8491 4.47691 18.8335 4.4774 18.8187 4.48164C18.8039 4.48587 18.7903 4.49371 18.7793 4.50445ZM28.787 4.69212C28.787 4.66029 28.7743 4.62977 28.7518 4.60727C28.7293 4.58476 28.6988 4.57212 28.667 4.57212C28.6351 4.57212 28.6046 4.58476 28.5821 4.60727C28.5596 4.62977 28.547 4.66029 28.547 4.69212C28.547 4.72395 28.5596 4.75447 28.5821 4.77698C28.6046 4.79948 28.6351 4.81213 28.667 4.81213C28.6988 4.81213 28.7293 4.79948 28.7518 4.77698C28.7743 4.75447 28.787 4.72395 28.787 4.69212ZM18.5163 5.08533C18.5163 5.05784 18.5109 5.03061 18.5004 5.00521C18.4898 4.97981 18.4744 4.95673 18.455 4.93728C18.4355 4.91784 18.4124 4.90242 18.387 4.8919C18.3616 4.88137 18.3344 4.87596 18.3069 4.87596C18.2514 4.87596 18.1981 4.89802 18.1589 4.93728C18.1196 4.97655 18.0975 5.0298 18.0975 5.08533C18.0975 5.14086 18.1196 5.19411 18.1589 5.23338C18.1981 5.27264 18.2514 5.2947 18.3069 5.2947C18.3344 5.2947 18.3616 5.28929 18.387 5.27877C18.4124 5.26824 18.4355 5.25282 18.455 5.23338C18.4744 5.21394 18.4898 5.19085 18.5004 5.16545C18.5109 5.14005 18.5163 5.11283 18.5163 5.08533ZM28.8419 5.37385C28.852 5.39448 28.8688 5.41105 28.8895 5.4208C28.9102 5.43055 28.9334 5.4329 28.9555 5.42747C29.0125 5.41386 29.0444 5.37598 29.0512 5.31385C29.0534 5.29452 29.0505 5.27496 29.0429 5.25705C29.0353 5.23914 29.0233 5.22348 29.0079 5.21156C28.9925 5.19965 28.9744 5.19188 28.9551 5.189C28.9359 5.18612 28.9162 5.18823 28.898 5.19512C28.8163 5.22747 28.7976 5.28704 28.8419 5.37385ZM25.4664 5.32151C25.4621 5.3513 25.4685 5.37896 25.4855 5.40449C25.4908 5.41233 25.4974 5.41907 25.5052 5.42434C25.513 5.42961 25.5217 5.4333 25.5308 5.4352C25.54 5.4371 25.5493 5.43717 25.5584 5.4354C25.5675 5.43364 25.5762 5.43008 25.5838 5.42492C25.6196 5.40109 25.6387 5.36577 25.6413 5.31896C25.6415 5.30198 25.6357 5.2855 25.6249 5.27259C25.6141 5.25968 25.5991 5.25121 25.5826 5.24874C25.5672 5.24704 25.5519 5.24747 25.5366 5.25002C25.4941 5.25768 25.4706 5.28151 25.4664 5.32151ZM28.7653 5.49769C28.7653 5.4425 28.7433 5.38957 28.7043 5.35054C28.6653 5.31152 28.6124 5.2896 28.5572 5.2896C28.502 5.2896 28.4491 5.31152 28.41 5.35054C28.371 5.38957 28.3491 5.4425 28.3491 5.49769C28.3491 5.55288 28.371 5.60581 28.41 5.64484C28.4491 5.68386 28.502 5.70578 28.5572 5.70578C28.6124 5.70578 28.6653 5.68386 28.7043 5.64484C28.7433 5.60581 28.7653 5.55288 28.7653 5.49769ZM24.537 5.49003C24.4706 5.51897 24.4532 5.56706 24.4846 5.63429C24.5025 5.67174 24.531 5.6828 24.5702 5.66748C24.6153 5.64961 24.6438 5.61557 24.6557 5.56535C24.6642 5.5262 24.6498 5.49982 24.6123 5.4862C24.5868 5.47684 24.5617 5.47811 24.537 5.49003ZM17.8533 5.82397C17.8401 5.79691 17.8151 5.77693 17.7841 5.76843C17.753 5.75994 17.7183 5.76361 17.6875 5.77866C17.6568 5.7937 17.6327 5.81888 17.6203 5.84865C17.608 5.87842 17.6085 5.91035 17.6217 5.93741C17.635 5.96447 17.6599 5.98444 17.691 5.99294C17.7221 6.00144 17.7568 5.99776 17.7875 5.98272C17.8182 5.96767 17.8424 5.9425 17.8547 5.91273C17.8671 5.88295 17.8666 5.85103 17.8533 5.82397ZM24.8204 6.2956C24.8204 6.24007 24.7983 6.18682 24.7591 6.14755C24.7198 6.10829 24.6666 6.08623 24.611 6.08623C24.5835 6.08623 24.5563 6.09164 24.5309 6.10217C24.5055 6.11269 24.4824 6.12811 24.463 6.14755C24.4435 6.16699 24.4281 6.19007 24.4176 6.21548C24.4071 6.24088 24.4017 6.2681 24.4017 6.2956C24.4017 6.35113 24.4237 6.40438 24.463 6.44365C24.5023 6.48291 24.5555 6.50497 24.611 6.50497C24.6666 6.50497 24.7198 6.48291 24.7591 6.44365C24.7983 6.40438 24.8204 6.35113 24.8204 6.2956ZM27.9137 6.54965C27.9137 6.51749 27.901 6.48664 27.8782 6.46389C27.8555 6.44115 27.8246 6.42837 27.7925 6.42837C27.7765 6.42837 27.7608 6.43151 27.746 6.4376C27.7313 6.4437 27.718 6.45263 27.7067 6.46389C27.6954 6.47516 27.6865 6.48853 27.6804 6.50324C27.6743 6.51795 27.6712 6.53373 27.6712 6.54965C27.6712 6.58182 27.684 6.61267 27.7067 6.63541C27.7294 6.65816 27.7603 6.67094 27.7925 6.67094C27.8246 6.67094 27.8555 6.65816 27.8782 6.63541C27.901 6.61267 27.9137 6.58182 27.9137 6.54965ZM18.177 6.60037C18.1595 6.58016 18.1337 6.56861 18.1052 6.56826C18.0767 6.56792 18.0479 6.57881 18.0251 6.59854C18.0024 6.61827 17.9875 6.64522 17.9837 6.67346C17.98 6.70171 17.9878 6.72894 18.0053 6.74916C18.0228 6.76937 18.0486 6.78092 18.0771 6.78127C18.1056 6.78161 18.1344 6.77072 18.1572 6.751C18.18 6.73127 18.1949 6.70431 18.1986 6.67607C18.2023 6.64782 18.1946 6.62059 18.177 6.60037ZM18.8993 6.96329C18.8993 6.9472 18.8961 6.93126 18.89 6.91639C18.8838 6.90152 18.8748 6.88801 18.8634 6.87663C18.852 6.86525 18.8385 6.85622 18.8236 6.85006C18.8088 6.8439 18.7928 6.84073 18.7767 6.84073C18.7442 6.84073 18.713 6.85364 18.6901 6.87663C18.6671 6.89961 18.6542 6.93079 18.6542 6.96329C18.6542 6.99579 18.6671 7.02697 18.6901 7.04995C18.713 7.07294 18.7442 7.08585 18.7767 7.08585C18.7928 7.08585 18.8088 7.08268 18.8236 7.07652C18.8385 7.07036 18.852 7.06133 18.8634 7.04995C18.8748 7.03857 18.8838 7.02506 18.89 7.01019C18.8961 6.99532 18.8993 6.97939 18.8993 6.96329ZM27.3099 7.04883C27.3099 7.03273 27.3067 7.01679 27.3006 7.00192C27.2944 6.98705 27.2854 6.97354 27.274 6.96216C27.2626 6.95078 27.2491 6.94175 27.2342 6.9356C27.2194 6.92944 27.2034 6.92627 27.1873 6.92627C27.1548 6.92627 27.1236 6.93918 27.1007 6.96216C27.0777 6.98515 27.0648 7.01632 27.0648 7.04883C27.0648 7.08133 27.0777 7.1125 27.1007 7.13549C27.1236 7.15847 27.1548 7.17138 27.1873 7.17138C27.2034 7.17138 27.2194 7.16821 27.2342 7.16205C27.2491 7.1559 27.2626 7.14687 27.274 7.13549C27.2854 7.12411 27.2944 7.1106 27.3006 7.09573C27.3067 7.08086 27.3099 7.06492 27.3099 7.04883ZM23.7148 7.21096C23.7148 7.17879 23.702 7.14794 23.6793 7.1252C23.6566 7.10246 23.6257 7.08968 23.5935 7.08968C23.5614 7.08968 23.5305 7.10246 23.5078 7.1252C23.485 7.14794 23.4723 7.17879 23.4723 7.21096C23.4723 7.24313 23.485 7.27397 23.5078 7.29672C23.5305 7.31946 23.5614 7.33224 23.5935 7.33224C23.6257 7.33224 23.6566 7.31946 23.6793 7.29672C23.702 7.27397 23.7148 7.24313 23.7148 7.21096ZM18.5858 7.87465C18.6239 7.91171 18.6764 7.93086 18.7318 7.92789C18.7871 7.92492 18.8407 7.90006 18.8808 7.8588C18.921 7.81754 18.9443 7.76324 18.9457 7.70786C18.9472 7.65248 18.9266 7.60054 18.8885 7.56348C18.8503 7.52642 18.7979 7.50727 18.7425 7.51025C18.6872 7.51322 18.6336 7.53807 18.5935 7.57934C18.5533 7.6206 18.53 7.6749 18.5286 7.73028C18.5271 7.78566 18.5477 7.83759 18.5858 7.87465ZM27.6725 7.77141C27.6725 7.73924 27.6597 7.7084 27.6369 7.68565C27.6142 7.66291 27.5833 7.65013 27.5512 7.65013C27.5352 7.65013 27.5195 7.65327 27.5048 7.65936C27.49 7.66546 27.4767 7.67439 27.4654 7.68565C27.4541 7.69691 27.4452 7.71028 27.4391 7.725C27.433 7.73971 27.4299 7.75548 27.4299 7.77141C27.4299 7.78734 27.433 7.80311 27.4391 7.81782C27.4452 7.83254 27.4541 7.84591 27.4654 7.85717C27.4767 7.86843 27.49 7.87737 27.5048 7.88346C27.5195 7.88956 27.5352 7.89269 27.5512 7.89269C27.5833 7.89269 27.6142 7.87992 27.6369 7.85717C27.6597 7.83443 27.6725 7.80358 27.6725 7.77141ZM22.8454 7.90546C22.8454 7.84993 22.8234 7.79668 22.7841 7.75741C22.7448 7.71815 22.6916 7.69609 22.6361 7.69609C22.5805 7.69609 22.5273 7.71815 22.488 7.75741C22.4487 7.79668 22.4267 7.84993 22.4267 7.90546C22.4267 7.96099 22.4487 8.01424 22.488 8.05351C22.5273 8.09277 22.5805 8.11483 22.6361 8.11483C22.6916 8.11483 22.7448 8.09277 22.7841 8.05351C22.8234 8.01424 22.8454 7.96099 22.8454 7.90546ZM20.5857 8.02291C20.5857 7.99391 20.58 7.96519 20.5689 7.93839C20.5578 7.9116 20.5416 7.88725 20.5211 7.86674C20.5005 7.84623 20.4762 7.82996 20.4494 7.81886C20.4226 7.80776 20.3939 7.80205 20.3649 7.80205C20.3359 7.80205 20.3072 7.80776 20.2804 7.81886C20.2536 7.82996 20.2292 7.84623 20.2087 7.86674C20.1882 7.88725 20.1719 7.9116 20.1608 7.93839C20.1497 7.96519 20.144 7.99391 20.144 8.02291C20.144 8.08149 20.1673 8.13767 20.2087 8.17908C20.2501 8.2205 20.3063 8.24377 20.3649 8.24377C20.4235 8.24377 20.4796 8.2205 20.5211 8.17908C20.5625 8.13767 20.5857 8.08149 20.5857 8.02291ZM21.4666 8.09057C21.4062 8.13909 21.3977 8.19186 21.4411 8.24888C21.4494 8.25961 21.4602 8.26817 21.4725 8.27376C21.4848 8.27936 21.4983 8.28182 21.5118 8.28094C21.5252 8.28005 21.5381 8.27584 21.5494 8.26868C21.5607 8.26153 21.57 8.25165 21.5764 8.23994C21.6054 8.18803 21.5994 8.14036 21.5586 8.09696C21.5467 8.08474 21.5308 8.07733 21.5138 8.07616C21.4969 8.07498 21.48 8.08011 21.4666 8.09057ZM14.9148 8.50038C14.9148 8.44485 14.8928 8.3916 14.8535 8.35233C14.8143 8.31307 14.761 8.29101 14.7055 8.29101C14.6499 8.29101 14.5967 8.31307 14.5574 8.35233C14.5182 8.3916 14.4961 8.44485 14.4961 8.50038C14.4961 8.55591 14.5182 8.60916 14.5574 8.64843C14.5967 8.68769 14.6499 8.70975 14.7055 8.70975C14.761 8.70975 14.8143 8.68769 14.8535 8.64843C14.8928 8.60916 14.9148 8.55591 14.9148 8.50038ZM26.5375 8.46336C26.5375 8.44726 26.5343 8.43133 26.5282 8.41646C26.522 8.40159 26.513 8.38808 26.5016 8.3767C26.4902 8.36532 26.4767 8.35629 26.4618 8.35013C26.447 8.34397 26.431 8.3408 26.4149 8.3408C26.3824 8.3408 26.3513 8.35371 26.3283 8.3767C26.3053 8.39968 26.2924 8.43085 26.2924 8.46336C26.2924 8.49586 26.3053 8.52704 26.3283 8.55002C26.3513 8.57301 26.3824 8.58592 26.4149 8.58592C26.431 8.58592 26.447 8.58275 26.4618 8.57659C26.4767 8.57043 26.4902 8.5614 26.5016 8.55002C26.513 8.53864 26.522 8.52513 26.5282 8.51026C26.5343 8.49539 26.5375 8.47945 26.5375 8.46336ZM19.1286 8.5702C19.1219 8.55653 19.1122 8.54444 19.1002 8.53465C19.0882 8.52486 19.0741 8.51754 19.0587 8.51313C19.0433 8.50871 19.0269 8.50727 19.0104 8.5089C18.994 8.51053 18.9777 8.51519 18.9627 8.52262C18.9477 8.53005 18.9341 8.5401 18.9228 8.55219C18.9115 8.56429 18.9027 8.5782 18.8969 8.59312C18.891 8.60805 18.8882 8.6237 18.8887 8.63918C18.8892 8.65466 18.893 8.66966 18.8997 8.68334C18.9065 8.69702 18.9161 8.7091 18.9281 8.71889C18.9401 8.72868 18.9542 8.736 18.9697 8.74041C18.9851 8.74483 19.0015 8.74627 19.0179 8.74464C19.0344 8.74301 19.0506 8.73835 19.0657 8.73092C19.0807 8.72349 19.0942 8.71344 19.1055 8.70135C19.1168 8.68925 19.1257 8.67534 19.1315 8.66042C19.1374 8.64549 19.1401 8.62984 19.1396 8.61436C19.1391 8.59888 19.1354 8.58388 19.1286 8.5702ZM25.3387 8.76465C25.3387 8.70912 25.3167 8.65587 25.2774 8.6166C25.2381 8.57734 25.1849 8.55528 25.1294 8.55528C25.0738 8.55528 25.0206 8.57734 24.9813 8.6166C24.942 8.65587 24.92 8.70912 24.92 8.76465C24.92 8.82018 24.942 8.87343 24.9813 8.9127C25.0206 8.95196 25.0738 8.97402 25.1294 8.97402C25.1849 8.97402 25.2381 8.95196 25.2774 8.9127C25.3167 8.87343 25.3387 8.82018 25.3387 8.76465ZM21.4504 8.67173C21.4371 8.64395 21.4123 8.62305 21.3815 8.61365C21.3507 8.60424 21.3164 8.60709 21.2862 8.62157C21.2713 8.62875 21.2577 8.63856 21.2464 8.65045C21.2351 8.66234 21.2262 8.67608 21.2203 8.69088C21.2144 8.70568 21.2115 8.72125 21.2119 8.73671C21.2123 8.75217 21.2158 8.76721 21.2224 8.78096C21.2358 8.80875 21.2605 8.82965 21.2913 8.83905C21.3221 8.84846 21.3564 8.84561 21.3866 8.83112C21.4016 8.82395 21.4151 8.81414 21.4264 8.80225C21.4377 8.79036 21.4466 8.77662 21.4525 8.76182C21.4584 8.74702 21.4613 8.73144 21.4609 8.71599C21.4606 8.70053 21.457 8.68549 21.4504 8.67173ZM20.4083 8.99434C20.4186 9.00264 20.4307 9.00852 20.4439 9.01164C20.4571 9.01475 20.4711 9.01505 20.4852 9.01251C20.4992 9.00997 20.513 9.00465 20.5258 8.99684C20.5386 8.98903 20.5501 8.97889 20.5597 8.967C20.579 8.94299 20.5892 8.9133 20.5881 8.88447C20.587 8.85564 20.5747 8.83002 20.5539 8.81326C20.5435 8.80497 20.5314 8.79909 20.5182 8.79597C20.505 8.79285 20.491 8.79256 20.477 8.7951C20.4629 8.79763 20.4491 8.80296 20.4363 8.81077C20.4235 8.81858 20.412 8.82872 20.4025 8.84061C20.3831 8.86462 20.3729 8.89431 20.374 8.92314C20.3751 8.95197 20.3874 8.97758 20.4083 8.99434ZM27.1299 9.0519C27.1299 9.01973 27.1171 8.98888 27.0944 8.96614C27.0716 8.94339 27.0408 8.93061 27.0086 8.93061C26.9764 8.93061 26.9456 8.94339 26.9228 8.96614C26.9001 8.98888 26.8873 9.01973 26.8873 9.0519C26.8873 9.08406 26.9001 9.11491 26.9228 9.13765C26.9456 9.1604 26.9764 9.17318 27.0086 9.17318C27.0408 9.17318 27.0716 9.1604 27.0944 9.13765C27.1171 9.11491 27.1299 9.08406 27.1299 9.0519ZM25.8507 9.89704C25.8507 9.86521 25.838 9.83469 25.8155 9.81218C25.793 9.78968 25.7625 9.77704 25.7307 9.77704C25.6988 9.77704 25.6683 9.78968 25.6458 9.81218C25.6233 9.83469 25.6107 9.86521 25.6107 9.89704C25.6107 9.92887 25.6233 9.95939 25.6458 9.9819C25.6683 10.0044 25.6988 10.017 25.7307 10.017C25.7625 10.017 25.793 10.0044 25.8155 9.9819C25.838 9.95939 25.8507 9.92887 25.8507 9.89704ZM23.0573 10.2596C23.0573 10.2278 23.0447 10.1973 23.0222 10.1748C22.9997 10.1523 22.9692 10.1396 22.9373 10.1396C22.9055 10.1396 22.875 10.1523 22.8525 10.1748C22.83 10.1973 22.8173 10.2278 22.8173 10.2596C22.8173 10.2754 22.8204 10.291 22.8265 10.3055C22.8325 10.3201 22.8413 10.3333 22.8525 10.3445C22.8636 10.3556 22.8769 10.3645 22.8914 10.3705C22.906 10.3765 22.9216 10.3796 22.9373 10.3796C22.9531 10.3796 22.9687 10.3765 22.9833 10.3705C22.9978 10.3645 23.0111 10.3556 23.0222 10.3445C23.0333 10.3333 23.0422 10.3201 23.0482 10.3055C23.0542 10.291 23.0573 10.2754 23.0573 10.2596ZM24.6161 10.3158C24.6161 10.2836 24.6034 10.2528 24.5806 10.23C24.5579 10.2073 24.527 10.1945 24.4949 10.1945C24.4789 10.1945 24.4632 10.1976 24.4484 10.2037C24.4337 10.2098 24.4204 10.2188 24.4091 10.23C24.3978 10.2413 24.3889 10.2547 24.3828 10.2694C24.3767 10.2841 24.3736 10.2999 24.3736 10.3158C24.3736 10.3317 24.3767 10.3475 24.3828 10.3622C24.3889 10.3769 24.3978 10.3903 24.4091 10.4015C24.4204 10.4128 24.4337 10.4217 24.4484 10.4278C24.4632 10.4339 24.4789 10.4371 24.4949 10.4371C24.527 10.4371 24.5579 10.4243 24.5806 10.4015C24.6034 10.3788 24.6161 10.348 24.6161 10.3158ZM21.0019 10.9286C21.0019 10.9001 20.9906 10.8729 20.9705 10.8527C20.9504 10.8326 20.9231 10.8213 20.8947 10.8213C20.8663 10.8213 20.839 10.8326 20.8189 10.8527C20.7988 10.8729 20.7875 10.9001 20.7875 10.9286C20.7875 10.957 20.7988 10.9843 20.8189 11.0044C20.839 11.0245 20.8663 11.0358 20.8947 11.0358C20.9231 11.0358 20.9504 11.0245 20.9705 11.0044C20.9906 10.9843 21.0019 10.957 21.0019 10.9286ZM23.374 11.3856C23.374 11.3602 23.3639 11.3359 23.3459 11.3179C23.328 11.3 23.3036 11.2899 23.2782 11.2899C23.2528 11.2899 23.2285 11.3 23.2105 11.3179C23.1925 11.3359 23.1825 11.3602 23.1825 11.3856C23.1825 11.411 23.1925 11.4354 23.2105 11.4533C23.2285 11.4713 23.2528 11.4814 23.2782 11.4814C23.3036 11.4814 23.328 11.4713 23.3459 11.4533C23.3639 11.4354 23.374 11.411 23.374 11.3856ZM16.9473 11.6575C16.9473 11.602 16.9252 11.5488 16.886 11.5095C16.8467 11.4702 16.7934 11.4482 16.7379 11.4482C16.6824 11.4482 16.6291 11.4702 16.5899 11.5095C16.5506 11.5488 16.5285 11.602 16.5285 11.6575C16.5285 11.7131 16.5506 11.7663 16.5899 11.8056C16.6291 11.8449 16.6824 11.8669 16.7379 11.8669C16.7934 11.8669 16.8467 11.8449 16.886 11.8056C16.9252 11.7663 16.9473 11.7131 16.9473 11.6575ZM21.6352 11.7456C21.6352 11.6904 21.6132 11.6375 21.5742 11.5985C21.5352 11.5595 21.4822 11.5375 21.4271 11.5375C21.3719 11.5375 21.3189 11.5595 21.2799 11.5985C21.2409 11.6375 21.219 11.6904 21.219 11.7456C21.219 11.773 21.2243 11.8 21.2348 11.8253C21.2453 11.8505 21.2606 11.8735 21.2799 11.8928C21.2992 11.9121 21.3222 11.9274 21.3474 11.9379C21.3727 11.9483 21.3997 11.9537 21.4271 11.9537C21.4822 11.9537 21.5352 11.9318 21.5742 11.8928C21.6132 11.8538 21.6352 11.8008 21.6352 11.7456ZM19.9525 11.7584C19.9525 11.7262 19.9397 11.6954 19.917 11.6726C19.8943 11.6499 19.8634 11.6371 19.8312 11.6371C19.7991 11.6371 19.7682 11.6499 19.7455 11.6726C19.7227 11.6954 19.71 11.7262 19.71 11.7584C19.71 11.7743 19.7131 11.7901 19.7192 11.8048C19.7253 11.8195 19.7342 11.8329 19.7455 11.8442C19.7567 11.8554 19.7701 11.8644 19.7848 11.8705C19.7995 11.8765 19.8153 11.8797 19.8312 11.8797C19.8634 11.8797 19.8943 11.8669 19.917 11.8442C19.9397 11.8214 19.9525 11.7906 19.9525 11.7584ZM17.9175 12.0342C17.9175 12.0054 17.9061 11.9778 17.8858 11.9574C17.8654 11.9371 17.8378 11.9256 17.809 11.9256C17.7802 11.9256 17.7526 11.9371 17.7323 11.9574C17.7119 11.9778 17.7005 12.0054 17.7005 12.0342C17.7005 12.0629 17.7119 12.0905 17.7323 12.1109C17.7526 12.1312 17.7802 12.1427 17.809 12.1427C17.8378 12.1427 17.8654 12.1312 17.8858 12.1109C17.9061 12.0905 17.9175 12.0629 17.9175 12.0342Z" fill="url(#paint0_linear_598_62)"/>
<path d="M32.1901 7.13944C32.1493 7.05603 32.1289 7.06071 32.1289 7.15348V11.7686C32.1289 11.8222 32.102 11.849 32.0484 11.849L29.2475 11.8618C29.1964 11.8626 29.1709 11.8375 29.1709 11.7865V8.02799C29.1709 7.96671 29.1874 7.91011 29.2206 7.8582C30.4973 5.84874 31.2237 2.64434 29.2181 0.752339C29.1662 0.703826 29.1491 0.645526 29.167 0.577438C29.1715 0.56021 29.1816 0.544905 29.1959 0.533845C29.2102 0.522785 29.2278 0.516576 29.2462 0.516159C30.3049 0.502541 31.382 0.504243 32.4774 0.521265C34.1766 0.546798 36.1337 1.04214 36.7772 2.83584C37.3351 4.38953 36.9891 6.25472 35.3001 6.90964C35.2465 6.93007 35.2324 6.96582 35.2579 7.01688L37.6376 11.8375C37.6606 11.8843 37.6461 11.9073 37.5942 11.9065L34.5226 11.8554C34.48 11.8546 34.4498 11.835 34.4319 11.7967L32.1901 7.13944ZM32.1314 3.04266L32.1263 5.813C32.1263 5.81702 32.1271 5.821 32.1286 5.82472C32.1302 5.82844 32.1324 5.83182 32.1353 5.83466C32.1381 5.83751 32.1415 5.83977 32.1452 5.8413C32.1489 5.84284 32.1529 5.84364 32.1569 5.84364H32.6306C32.8145 5.84399 32.9967 5.80989 33.1668 5.74329C33.3368 5.67669 33.4914 5.57889 33.6217 5.45548C33.752 5.33207 33.8554 5.18546 33.9261 5.02403C33.9968 4.8626 34.0333 4.68951 34.0336 4.51464V4.34612C34.0343 3.99299 33.8874 3.65405 33.6252 3.40386C33.363 3.15367 33.0071 3.01272 32.6357 3.01202H32.1621C32.1539 3.01202 32.1461 3.01524 32.1404 3.02099C32.1346 3.02674 32.1314 3.03453 32.1314 3.04266Z" fill="url(#paint1_linear_598_62)"/>
<path d="M41.6772 9.00336L45.7727 9.33529C45.7786 9.3358 45.7843 9.33761 45.7894 9.3406C45.7945 9.34359 45.7989 9.34769 45.8022 9.35259C45.8055 9.35748 45.8076 9.36306 45.8085 9.3689C45.8094 9.37475 45.8089 9.38071 45.8072 9.38636L44.9595 12.1797C44.9476 12.218 44.922 12.2363 44.8829 12.2346L38.7039 11.9269C38.6784 11.9261 38.6656 11.9129 38.6656 11.8873C38.6537 9.15188 38.6549 6.53474 38.6694 4.0359C38.6783 2.69286 38.3988 1.51323 37.3442 0.623405C37.2804 0.569786 37.2902 0.544252 37.3736 0.546805L41.4832 0.696173C41.5615 0.698727 41.6006 0.73958 41.6006 0.818733L41.607 8.92676C41.607 8.97358 41.6304 8.99911 41.6772 9.00336Z" fill="url(#paint2_linear_598_62)"/>
<path d="M55.2296 8.32315C53.9543 8.84658 53.2521 10.2113 53.5202 11.562C53.5287 11.6029 53.5159 11.6356 53.4819 11.6603C52.3916 12.4659 51.0511 12.7212 49.7273 12.6472C48.8047 12.5961 47.8561 12.5076 46.8816 12.3816C46.8407 12.3765 46.8203 12.3535 46.8203 12.3127V1.11516C46.8203 1.07005 46.8429 1.0492 46.888 1.0526C48.4557 1.17133 50.0924 1.33219 51.5363 1.91307C54.0806 2.93695 55.4352 5.49153 55.2986 8.22485C55.296 8.27251 55.273 8.30528 55.2296 8.32315ZM52.2346 7.58397C52.255 7.34991 52.2372 7.11458 52.181 6.87798C51.918 5.76644 51.2631 5.03321 50.2162 4.6783C50.0885 4.6349 49.9588 4.60766 49.8268 4.5966C49.7809 4.59234 49.7579 4.61362 49.7579 4.66043V9.59981C49.7579 9.64662 49.7813 9.67002 49.8281 9.67002C51.1482 9.6547 52.1146 8.93467 52.2346 7.58397Z" fill="url(#paint3_linear_598_62)"/>
<path d="M9.71664 8.33954L7.71995 13.6185C7.70463 13.6577 7.67654 13.6811 7.63569 13.6887L5.55474 14.0704C5.55012 14.0714 5.54535 14.0713 5.54074 14.0703C5.53614 14.0693 5.53178 14.0674 5.52795 14.0646C5.52412 14.0619 5.5209 14.0584 5.51848 14.0543C5.51606 14.0503 5.5145 14.0458 5.51389 14.0411L3.98318 3.09122C3.97893 3.05972 3.99254 3.041 4.02403 3.03504L6.81863 2.47459C6.8714 2.46353 6.90076 2.4848 6.90672 2.53842L7.44164 7.40503C7.4527 7.51227 7.47909 7.5161 7.52079 7.41652L9.72813 2.09542C9.73044 2.09025 9.7342 2.08585 9.73896 2.08276C9.74372 2.07968 9.74927 2.07804 9.75494 2.07804C9.76061 2.07804 9.76616 2.07968 9.77091 2.08276C9.77567 2.08585 9.77943 2.09025 9.78175 2.09542L11.9776 6.89181C12.0023 6.94543 12.0184 6.94288 12.0261 6.88415L12.7066 1.65243C12.7088 1.63636 12.7164 1.62148 12.7282 1.61014C12.74 1.59881 12.7553 1.59167 12.7717 1.58987L15.5446 1.28603C15.5837 1.28177 15.6007 1.29922 15.5956 1.33837L15.0952 5.17344C15.0884 5.22621 15.0679 5.27302 15.0339 5.31387C13.6385 7.00416 12.9683 9.56768 14.2373 11.5069C14.2693 11.5554 14.2825 11.6145 14.2743 11.6729L14.139 12.7325C14.1347 12.7708 14.1134 12.7921 14.0751 12.7963L11.8857 13.0581C11.8338 13.0649 11.7976 13.044 11.7772 12.9955L9.79579 8.33826C9.79269 8.33045 9.7873 8.32381 9.78032 8.31918C9.77333 8.31456 9.76507 8.31216 9.75658 8.3123C9.74809 8.31243 9.73975 8.3151 9.73264 8.31995C9.72553 8.3248 9.71996 8.33162 9.71664 8.33954Z" fill="url(#paint4_linear_598_62)"/>
<path d="M53.9528 11.974C53.2864 10.4279 54.346 8.48614 56.1308 8.44912C57.0304 8.4304 57.727 8.82616 58.2207 9.63641C58.3049 9.77599 58.3466 9.92068 58.3458 10.0705C58.3407 10.6331 58.3407 11.1909 58.3458 11.7442C58.3466 11.8957 58.3041 12.0429 58.2181 12.1859C57.1751 13.9106 54.7558 13.8328 53.9528 11.974ZM55.8847 12.0684C56.1742 12.1374 56.4805 12.0835 56.7362 11.9184C56.9918 11.7534 57.1759 11.4908 57.2479 11.1884C57.2836 11.0387 57.2907 10.8838 57.2688 10.7324C57.2469 10.581 57.1964 10.4361 57.1203 10.3061C57.0441 10.1761 56.9438 10.0635 56.825 9.97462C56.7062 9.88578 56.5713 9.82247 56.4279 9.78832C56.1384 9.71935 55.8321 9.77331 55.5765 9.93834C55.3208 10.1034 55.1367 10.366 55.0647 10.6683C55.029 10.818 55.0219 10.973 55.0438 11.1244C55.0657 11.2758 55.1162 11.4206 55.1924 11.5506C55.2685 11.6807 55.3688 11.7933 55.4876 11.8821C55.6064 11.971 55.7414 12.0343 55.8847 12.0684Z" fill="url(#paint5_linear_598_62)"/>
<path d="M59.5334 12.2974L59.536 14.0221C59.5359 14.0279 59.5346 14.0337 59.532 14.0389C59.5295 14.0441 59.5259 14.0487 59.5214 14.0524C59.5168 14.056 59.5116 14.0586 59.506 14.06C59.5003 14.0614 59.4945 14.0616 59.4888 14.0604L58.6296 13.8983C58.6205 13.8965 58.6123 13.8916 58.6064 13.8843C58.6006 13.8771 58.5975 13.868 58.5977 13.8587V9.21044C58.5977 9.20463 58.5991 9.19892 58.6016 9.1937C58.6042 9.18848 58.6078 9.18388 58.6123 9.18022C58.6168 9.17657 58.6221 9.17395 58.6277 9.17255C58.6333 9.17115 58.6392 9.17101 58.6449 9.17214L60.9518 9.65471C60.9605 9.65672 60.9682 9.66159 60.9738 9.66854C60.9793 9.67549 60.9824 9.68411 60.9825 9.69301L61.0003 10.7922C61.0004 10.7981 60.9992 10.804 60.9968 10.8094C60.9943 10.8147 60.9907 10.8195 60.9862 10.8233C60.9816 10.8271 60.9763 10.8298 60.9706 10.8313C60.9649 10.8328 60.9589 10.8329 60.9531 10.8318L59.5858 10.5471C59.5801 10.546 59.5742 10.5461 59.5686 10.5475C59.563 10.5489 59.5577 10.5515 59.5532 10.5552C59.5487 10.5588 59.5451 10.5634 59.5425 10.5687C59.54 10.5739 59.5386 10.5796 59.5386 10.5854L59.536 11.1509C59.536 11.1597 59.5389 11.1682 59.5442 11.1751C59.5495 11.182 59.5569 11.187 59.5654 11.1892L60.4514 11.4369C60.4598 11.4392 60.4672 11.4442 60.4726 11.4511C60.4779 11.458 60.4807 11.4665 60.4807 11.4752V12.4468C60.4807 12.4528 60.4794 12.4588 60.4767 12.4643C60.474 12.4697 60.4701 12.4745 60.4653 12.4782C60.4605 12.4819 60.4549 12.4844 60.4489 12.4856C60.443 12.4868 60.4368 12.4866 60.4309 12.4851L59.5832 12.2591C59.5774 12.2575 59.5712 12.2573 59.5653 12.2585C59.5593 12.2597 59.5537 12.2623 59.5489 12.266C59.5441 12.2697 59.5402 12.2744 59.5375 12.2799C59.5348 12.2853 59.5334 12.2913 59.5334 12.2974Z" fill="url(#paint6_linear_598_62)"/>
<path d="M14.5646 22.1896C14.5212 22.1394 14.4995 22.1475 14.4995 22.2139L14.5097 27.8822C14.5097 27.9316 14.485 27.9592 14.4357 27.9652L11.1546 28.3622C11.101 28.369 11.0742 28.3452 11.0742 28.2907V13.5671C11.0742 13.5339 11.0861 13.5292 11.11 13.553C11.9262 14.3727 12.742 15.2029 13.5573 16.0438C14.7816 17.3051 16.1362 18.4694 17.4537 19.6478C17.458 19.652 17.4635 19.6548 17.4695 19.6558C17.4754 19.6568 17.4816 19.656 17.4872 19.6534C17.4928 19.6508 17.4976 19.6466 17.5009 19.6413C17.5042 19.636 17.506 19.6298 17.506 19.6235L17.5073 13.382C17.5073 13.3232 17.5362 13.2977 17.5941 13.3054C18.6758 13.4432 19.7636 13.4015 20.8572 13.1803C20.9117 13.1692 20.9389 13.1913 20.9389 13.2466V28.9176C20.9389 28.9686 20.9206 28.9767 20.884 28.9418C20.2138 28.3124 19.5359 27.7188 18.9065 27.0307C17.4324 25.4178 15.9851 23.8041 14.5646 22.1896Z" fill="url(#paint7_linear_598_62)"/>
<path d="M37.7601 17.4165L37.7588 18.6051C37.7588 18.6485 37.7805 18.6711 37.8239 18.6728L40.7155 18.7915C40.7302 18.7918 40.7442 18.7979 40.7544 18.8084C40.7647 18.8189 40.7704 18.833 40.7704 18.8477L40.7717 22.0482C40.7717 22.078 40.7568 22.0933 40.727 22.0942L37.7818 22.1963C37.7673 22.1972 37.7601 22.2048 37.7601 22.2193V23.3836C37.7601 23.3989 37.7677 23.407 37.783 23.4079L42.6024 23.6326C42.6074 23.6328 42.6123 23.6341 42.6167 23.6365C42.6212 23.6388 42.625 23.6422 42.6279 23.6462C42.6309 23.6503 42.6329 23.6549 42.6338 23.6599C42.6347 23.6648 42.6344 23.6699 42.6331 23.6747L41.7343 27.1727C41.7215 27.2221 41.6896 27.2451 41.6385 27.2417C39.1814 27.1089 36.763 27.0293 34.3833 27.0029C34.3348 27.0021 34.3105 26.9774 34.3105 26.9289V13.7781C34.3105 13.7729 34.3116 13.7678 34.3136 13.7631C34.3156 13.7584 34.3185 13.7541 34.3222 13.7505C34.3259 13.747 34.3303 13.7442 34.3351 13.7423C34.3399 13.7405 34.345 13.7396 34.3501 13.7398L42.2794 13.9542C42.3288 13.9551 42.3573 13.9798 42.365 14.0283L42.9165 17.4548C42.9233 17.4957 42.9058 17.5153 42.8641 17.5136L37.8596 17.3208C37.7933 17.3182 37.7601 17.3501 37.7601 17.4165Z" fill="url(#paint8_linear_598_62)"/>
<path d="M26.6637 21.5633L26.6662 27.058C26.6663 27.0697 26.6618 27.0811 26.6537 27.0896C26.6456 27.0982 26.6346 27.1033 26.6228 27.1039L23.2614 27.2635C23.2552 27.2639 23.2489 27.2629 23.243 27.2608C23.2372 27.2586 23.2318 27.2553 23.2272 27.251C23.2227 27.2467 23.2191 27.2415 23.2166 27.2358C23.2141 27.23 23.2129 27.2238 23.2129 27.2176V14.0374C23.2129 14.0076 23.2282 13.9918 23.2589 13.9901C24.481 13.9238 25.6887 13.8667 26.882 13.8191C28.9093 13.7374 31.3184 14.151 32.1086 16.3022C32.7904 18.1597 32.3052 20.3428 30.3519 21.156C30.3077 21.1747 30.2962 21.2058 30.3175 21.2492L33.1874 26.938C33.1903 26.9434 33.1917 26.9496 33.1915 26.9557C33.1913 26.9619 33.1895 26.9679 33.1863 26.9732C33.183 26.9785 33.1785 26.9828 33.1731 26.9858C33.1677 26.9888 33.1616 26.9904 33.1555 26.9903L29.4851 27.0197C29.44 27.0197 29.4076 26.9997 29.3881 26.9597L26.7262 21.5479C26.6845 21.4628 26.6637 21.4679 26.6637 21.5633ZM26.6713 16.7324L26.6535 20.0032C26.6533 20.007 26.6539 20.0108 26.6552 20.0143C26.6566 20.0179 26.6586 20.0211 26.6612 20.0239C26.6639 20.0266 26.667 20.0288 26.6705 20.0303C26.674 20.0318 26.6778 20.0326 26.6816 20.0325L27.2395 20.0351C27.4563 20.0363 27.6712 19.9971 27.8719 19.9195C28.0727 19.842 28.2553 19.7277 28.4095 19.5831C28.5636 19.4386 28.6862 19.2667 28.7702 19.0772C28.8542 18.8878 28.898 18.6844 28.8991 18.4789V18.2823C28.9014 17.8672 28.7297 17.4682 28.4218 17.173C28.1139 16.8778 27.6951 16.7106 27.2573 16.7081L26.6994 16.7056C26.6922 16.7056 26.6852 16.7084 26.68 16.7134C26.6748 16.7184 26.6717 16.7252 26.6713 16.7324Z" fill="url(#paint9_linear_598_62)"/>
<path d="M49.357 18.6942L47.5007 24.6613C47.482 24.7234 47.505 24.7558 47.5697 24.7583C48.2233 24.7796 48.9268 24.8119 49.68 24.8553C50.0051 24.8732 50.2204 25.066 50.326 25.4337C50.5617 26.2609 50.8034 27.0933 51.0511 27.9308C51.0673 27.9861 51.0464 28.0108 50.9886 28.0048C48.3535 27.7291 45.7117 27.504 43.0631 27.3295C43.0018 27.3252 42.9814 27.2942 43.0018 27.2363L47.5735 14.434C47.5931 14.3795 47.6314 14.3553 47.6884 14.3612L51.4392 14.734C51.4962 14.74 51.5333 14.7702 51.5503 14.8247L55.8666 28.5947C55.868 28.5991 55.8681 28.6039 55.8672 28.6085C55.8662 28.613 55.8641 28.6173 55.861 28.6208C55.858 28.6244 55.8541 28.6271 55.8497 28.6288C55.8454 28.6305 55.8406 28.631 55.836 28.6304L52.2792 28.1478C52.2625 28.1456 52.2467 28.1385 52.2338 28.1274C52.2209 28.1163 52.2114 28.1017 52.2065 28.0853L49.4298 18.6955C49.4059 18.6146 49.3817 18.6142 49.357 18.6942Z" fill="url(#paint10_linear_598_62)"/>
<path d="M65.3622 26.691V26.7625L64.3128 30.0563C64.2983 30.1023 64.2677 30.1206 64.2209 30.1112C61.8097 29.638 59.4492 29.2197 57.1393 28.8562C57.0882 28.8477 57.0627 28.8175 57.0627 28.7656C57.0652 25.3442 57.0652 21.9402 57.0627 18.5536C57.0614 17.231 56.4652 16.2225 55.5256 15.3684C55.443 15.2935 55.4571 15.2646 55.5677 15.2816C57.1754 15.5241 58.7981 15.8148 60.4356 16.1535C60.4662 16.1595 60.4815 16.1778 60.4815 16.2084L60.4803 25.6901C60.4803 25.7089 60.4869 25.727 60.499 25.7414C60.5112 25.7559 60.528 25.7657 60.5467 25.7693L65.3622 26.691Z" fill="url(#paint11_linear_598_62)"/>
<path d="M0 25.8962V17.3579L3.34994 16.4553C3.39335 16.4434 3.41505 16.46 3.41505 16.5051C3.42101 19.0788 3.42058 21.6866 3.41377 24.3284C3.4125 25.0268 3.47888 26.1834 4.45808 25.9677C5.44365 25.7506 5.46025 24.5289 5.45387 23.7054C5.43429 21.2423 5.42408 18.6946 5.42323 16.0621C5.42323 16.0136 5.44706 15.9851 5.49472 15.9766L8.79487 15.3906C8.84594 15.3812 8.87147 15.4025 8.87147 15.4544C8.87573 18.2418 8.87402 20.9202 8.86636 23.4897C8.86466 24.1195 8.82679 24.7331 8.75274 25.3306C8.56763 26.832 7.73653 28.1801 6.39349 28.8886C4.51042 29.8832 1.37496 30.307 0.382996 27.8954C0.167667 27.3728 0.0400018 26.7064 0 25.8962Z" fill="url(#paint12_linear_598_62)"/>
<defs>
<linearGradient id="paint0_linear_598_62" x1="22.0207" y1="0" x2="22.0207" y2="12.8711" gradientUnits="userSpaceOnUse">
<stop stop-color="#3FE4FD"/>
<stop offset="1" stop-color="#2536C2"/>
</linearGradient>
<linearGradient id="paint1_linear_598_62" x1="33.4042" y1="0.50708" x2="33.4042" y2="11.9065" gradientUnits="userSpaceOnUse">
<stop stop-color="#D5E7E3"/>
<stop offset="1" stop-color="#D3E6E5"/>
</linearGradient>
<linearGradient id="paint2_linear_598_62" x1="41.5558" y1="0.546631" x2="41.5558" y2="12.2347" gradientUnits="userSpaceOnUse">
<stop stop-color="#D5E7E3"/>
<stop offset="1" stop-color="#D3E6E5"/>
</linearGradient>
<linearGradient id="paint3_linear_598_62" x1="51.0641" y1="1.05225" x2="51.0641" y2="12.6594" gradientUnits="userSpaceOnUse">
<stop stop-color="#D5E7E3"/>
<stop offset="1" stop-color="#D3E6E5"/>
</linearGradient>
<linearGradient id="paint4_linear_598_62" x1="9.78946" y1="1.2854" x2="9.78946" y2="14.0711" gradientUnits="userSpaceOnUse">
<stop stop-color="#D5E7E3"/>
<stop offset="1" stop-color="#D3E6E5"/>
</linearGradient>
<linearGradient id="paint5_linear_598_62" x1="56.0489" y1="8.44849" x2="56.0489" y2="13.426" gradientUnits="userSpaceOnUse">
<stop stop-color="#D5E7E3"/>
<stop offset="1" stop-color="#D3E6E5"/>
</linearGradient>
<linearGradient id="paint6_linear_598_62" x1="59.799" y1="9.17139" x2="59.799" y2="14.0612" gradientUnits="userSpaceOnUse">
<stop stop-color="#D5E7E3"/>
<stop offset="1" stop-color="#D3E6E5"/>
</linearGradient>
<linearGradient id="paint7_linear_598_62" x1="16.0066" y1="13.1775" x2="16.0066" y2="28.9631" gradientUnits="userSpaceOnUse">
<stop stop-color="#D5E7E3"/>
<stop offset="1" stop-color="#D3E6E5"/>
</linearGradient>
<linearGradient id="paint8_linear_598_62" x1="38.6142" y1="13.7397" x2="38.6142" y2="27.242" gradientUnits="userSpaceOnUse">
<stop stop-color="#D5E7E3"/>
<stop offset="1" stop-color="#D3E6E5"/>
</linearGradient>
<linearGradient id="paint9_linear_598_62" x1="28.2022" y1="13.8096" x2="28.2022" y2="27.2636" gradientUnits="userSpaceOnUse">
<stop stop-color="#D5E7E3"/>
<stop offset="1" stop-color="#D3E6E5"/>
</linearGradient>
<linearGradient id="paint10_linear_598_62" x1="49.4309" y1="14.3604" x2="49.4309" y2="28.6307" gradientUnits="userSpaceOnUse">
<stop stop-color="#D5E7E3"/>
<stop offset="1" stop-color="#D3E6E5"/>
</linearGradient>
<linearGradient id="paint11_linear_598_62" x1="60.4174" y1="15.2769" x2="60.4174" y2="30.1136" gradientUnits="userSpaceOnUse">
<stop stop-color="#D5E7E3"/>
<stop offset="1" stop-color="#D3E6E5"/>
</linearGradient>
<linearGradient id="paint12_linear_598_62" x1="4.43687" y1="15.3884" x2="4.43687" y2="29.6784" gradientUnits="userSpaceOnUse">
<stop stop-color="#D5E7E3"/>
<stop offset="1" stop-color="#D3E6E5"/>
</linearGradient>
</defs>
</svg>
