<svg width="768" height="384" viewBox="0 0 768 384" fill="none" xmlns="http://www.w3.org/2000/svg">
<path d="M378.225 107.434C377.745 106.43 377.505 106.486 377.505 107.603V163.16C377.505 163.805 377.19 164.128 376.56 164.128L343.649 164.282C343.049 164.292 342.749 163.99 342.749 163.375V118.13C342.749 117.393 342.944 116.711 343.334 116.086C358.334 91.8964 366.87 53.3217 343.304 30.5457C342.694 29.9617 342.494 29.2599 342.704 28.4402C342.756 28.2328 342.875 28.0486 343.043 27.9155C343.211 27.7823 343.418 27.7076 343.634 27.7026C356.074 27.5386 368.73 27.5591 381.6 27.764C401.566 28.0714 424.562 34.0343 432.122 55.6269C438.677 74.3303 434.612 96.7835 414.766 104.668C414.136 104.913 413.971 105.344 414.271 105.958L442.232 163.99C442.502 164.553 442.332 164.83 441.722 164.819L405.631 164.205C405.131 164.194 404.776 163.959 404.566 163.498L378.225 107.434ZM377.535 58.1166L377.475 91.4661C377.475 91.5145 377.484 91.5625 377.502 91.6072C377.52 91.652 377.547 91.6926 377.58 91.7269C377.614 91.7611 377.653 91.7883 377.697 91.8068C377.741 91.8254 377.788 91.8349 377.835 91.8349H383.4C385.561 91.8391 387.702 91.4286 389.7 90.6269C391.698 89.8252 393.514 88.6479 395.045 87.1622C396.576 85.6766 397.791 83.9118 398.622 81.9685C399.453 80.0252 399.882 77.9415 399.886 75.8364V73.8078C399.893 69.5568 398.167 65.4766 395.087 62.4648C392.006 59.453 387.824 57.7563 383.46 57.7478H377.895C377.799 57.7478 377.708 57.7866 377.64 57.8558C377.573 57.925 377.535 58.0188 377.535 58.1166Z" fill="url(#paint0_linear_731_44)"/>
<path d="M489.694 129.87L537.816 133.866C537.885 133.872 537.952 133.894 538.012 133.93C538.072 133.966 538.123 134.015 538.162 134.074C538.201 134.133 538.226 134.2 538.237 134.271C538.247 134.341 538.241 134.413 538.221 134.481L528.261 168.107C528.121 168.568 527.821 168.788 527.361 168.768L454.758 165.064C454.458 165.054 454.308 164.895 454.308 164.588C454.168 131.658 454.183 100.153 454.353 70.0718C454.458 53.9043 451.173 39.7039 438.783 28.9921C438.033 28.3466 438.148 28.0392 439.128 28.07L487.414 29.8681C488.334 29.8988 488.794 30.3906 488.794 31.3434L488.869 128.948C488.869 129.512 489.144 129.819 489.694 129.87Z" fill="url(#paint1_linear_731_44)"/>
<path d="M648.941 121.685C633.956 127.986 625.705 144.415 628.856 160.675C628.956 161.167 628.806 161.561 628.406 161.858C615.595 171.556 599.845 174.629 584.289 173.738C573.449 173.123 562.303 172.058 550.853 170.541C550.373 170.48 550.133 170.203 550.133 169.711V34.9151C550.133 34.372 550.398 34.121 550.928 34.162C569.348 35.5913 588.579 37.5277 605.545 44.5203C635.441 56.8458 651.356 87.598 649.751 120.502C649.721 121.075 649.451 121.47 648.941 121.685ZM613.75 112.787C613.99 109.969 613.78 107.136 613.12 104.288C610.03 90.9073 602.335 82.0807 590.034 77.8083C588.534 77.2858 587.009 76.9579 585.459 76.8247C584.919 76.7735 584.649 77.0296 584.649 77.5931V137.054C584.649 137.617 584.924 137.899 585.474 137.899C600.985 137.714 612.34 129.047 613.75 112.787Z" fill="url(#paint2_linear_731_44)"/>
<path d="M114.173 121.883L90.7123 185.432C90.5323 185.903 90.2023 186.185 89.7223 186.277L65.2714 190.872C65.2171 190.883 65.1611 190.883 65.1069 190.87C65.0528 190.858 65.0017 190.835 64.9567 190.802C64.9117 190.769 64.8738 190.727 64.8454 190.678C64.8169 190.629 64.7986 190.575 64.7914 190.519L46.8058 58.7038C46.7558 58.3247 46.9158 58.0993 47.2858 58.0276L80.1219 51.2809C80.742 51.1477 81.087 51.4038 81.157 52.0493L87.4422 110.634C87.5722 111.925 87.8822 111.971 88.3722 110.772L114.308 46.7164C114.335 46.6541 114.38 46.6012 114.435 46.564C114.491 46.5269 114.557 46.5071 114.623 46.5071C114.69 46.5071 114.755 46.5269 114.811 46.564C114.867 46.6012 114.911 46.6541 114.938 46.7164L140.739 104.456C141.029 105.101 141.219 105.07 141.309 104.363L149.304 41.3836C149.33 41.1902 149.42 41.011 149.558 40.8746C149.697 40.7382 149.877 40.6523 150.069 40.6305L182.65 36.9729C183.11 36.9216 183.31 37.1317 183.25 37.603L177.37 83.7697C177.29 84.4049 177.05 84.9684 176.65 85.4602C160.255 105.808 152.379 136.668 167.29 160.012C167.667 160.596 167.822 161.307 167.725 162.01L166.135 174.766C166.085 175.227 165.835 175.483 165.385 175.534L139.659 178.685C139.049 178.767 138.624 178.516 138.384 177.932L115.103 121.868C115.067 121.774 115.003 121.694 114.921 121.638C114.839 121.583 114.742 121.554 114.642 121.555C114.543 121.557 114.445 121.589 114.361 121.647C114.278 121.706 114.212 121.788 114.173 121.883Z" fill="url(#paint3_linear_731_44)"/>
<path d="M633.938 165.635C626.108 147.024 638.558 123.649 659.529 123.203C670.099 122.978 678.285 127.742 684.085 137.496C685.075 139.176 685.565 140.918 685.555 142.721C685.495 149.493 685.495 156.209 685.555 162.869C685.565 164.693 685.065 166.465 684.055 168.186C671.799 188.949 643.373 188.012 633.938 165.635ZM656.638 166.773C660.04 167.603 663.638 166.953 666.642 164.967C669.646 162.98 671.809 159.819 672.656 156.179C673.075 154.377 673.158 152.511 672.9 150.689C672.643 148.866 672.05 147.123 671.155 145.558C670.261 143.993 669.082 142.637 667.686 141.567C666.29 140.497 664.705 139.735 663.02 139.324C659.618 138.494 656.02 139.144 653.016 141.13C650.012 143.117 647.849 146.278 647.003 149.918C646.583 151.72 646.5 153.586 646.758 155.408C647.015 157.23 647.608 158.974 648.503 160.539C649.398 162.104 650.576 163.46 651.972 164.53C653.368 165.599 654.953 166.361 656.638 166.773Z" fill="url(#paint4_linear_731_44)"/>
<path d="M699.507 169.526L699.537 190.289C699.536 190.358 699.52 190.427 699.491 190.49C699.461 190.553 699.418 190.608 699.365 190.652C699.312 190.696 699.25 190.728 699.184 190.745C699.118 190.761 699.049 190.763 698.982 190.75L688.887 188.798C688.78 188.776 688.683 188.717 688.615 188.63C688.546 188.542 688.51 188.433 688.512 188.321V132.365C688.513 132.295 688.529 132.226 688.558 132.164C688.588 132.101 688.631 132.045 688.684 132.001C688.737 131.957 688.799 131.926 688.865 131.909C688.931 131.892 689 131.891 689.067 131.904L716.173 137.713C716.275 137.737 716.366 137.796 716.431 137.88C716.496 137.963 716.532 138.067 716.533 138.174L716.743 151.407C716.744 151.478 716.73 151.548 716.701 151.613C716.672 151.678 716.63 151.735 716.576 151.781C716.523 151.826 716.461 151.859 716.393 151.877C716.326 151.895 716.256 151.897 716.188 151.883L700.122 148.456C700.055 148.442 699.986 148.444 699.92 148.461C699.854 148.478 699.792 148.509 699.739 148.553C699.686 148.597 699.643 148.653 699.614 148.715C699.584 148.778 699.568 148.847 699.567 148.917L699.537 155.725C699.537 155.83 699.571 155.932 699.633 156.016C699.696 156.099 699.783 156.159 699.882 156.186L710.293 159.168C710.392 159.195 710.479 159.255 710.542 159.338C710.604 159.421 710.638 159.524 710.638 159.629V171.324C710.638 171.397 710.621 171.469 710.59 171.535C710.558 171.601 710.513 171.658 710.456 171.702C710.399 171.747 710.334 171.778 710.264 171.792C710.194 171.806 710.121 171.804 710.053 171.785L700.092 169.065C700.023 169.046 699.951 169.044 699.881 169.058C699.811 169.072 699.745 169.103 699.689 169.148C699.632 169.192 699.586 169.249 699.555 169.315C699.523 169.381 699.507 169.453 699.507 169.526Z" fill="url(#paint5_linear_731_44)"/>
<path d="M171.127 288.608C170.617 288.004 170.362 288.101 170.362 288.9L170.482 357.136C170.482 357.73 170.192 358.063 169.612 358.135L131.06 362.915C130.43 362.997 130.115 362.71 130.115 362.054V184.81C130.115 184.41 130.255 184.354 130.535 184.641C140.126 194.508 149.711 204.502 159.291 214.625C173.677 229.809 189.592 243.825 205.073 258.01C205.124 258.061 205.188 258.095 205.259 258.107C205.329 258.119 205.401 258.109 205.467 258.077C205.533 258.046 205.589 257.995 205.628 257.931C205.667 257.867 205.688 257.793 205.688 257.718L205.703 182.582C205.703 181.875 206.043 181.567 206.723 181.66C219.433 183.319 232.214 182.817 245.064 180.153C245.704 180.02 246.024 180.287 246.024 180.953V369.6C246.024 370.215 245.809 370.312 245.379 369.892C237.504 362.315 229.539 355.169 222.143 346.885C204.823 327.47 187.817 308.044 171.127 288.608Z" fill="url(#paint6_linear_731_44)"/>
<path d="M443.676 231.149L443.661 245.456C443.661 245.979 443.916 246.251 444.426 246.271L478.402 247.7C478.575 247.704 478.739 247.777 478.859 247.904C478.98 248.03 479.047 248.2 479.047 248.376L479.062 286.905C479.062 287.264 478.887 287.448 478.537 287.458L443.931 288.688C443.761 288.698 443.676 288.79 443.676 288.964V302.98C443.676 303.165 443.766 303.262 443.946 303.272L500.573 305.977C500.632 305.98 500.689 305.996 500.741 306.024C500.793 306.053 500.838 306.093 500.873 306.141C500.907 306.19 500.931 306.247 500.941 306.306C500.952 306.365 500.949 306.426 500.933 306.484L490.373 348.594C490.223 349.188 489.847 349.465 489.247 349.424C460.376 347.825 431.961 346.867 404 346.55C403.43 346.54 403.145 346.242 403.145 345.658V187.349C403.144 187.287 403.157 187.225 403.18 187.168C403.204 187.112 403.238 187.06 403.282 187.017C403.325 186.974 403.376 186.94 403.433 186.918C403.489 186.896 403.549 186.885 403.61 186.887L496.778 189.469C497.358 189.48 497.693 189.777 497.783 190.361L504.263 231.61C504.343 232.101 504.138 232.337 503.648 232.316L444.846 229.996C444.066 229.965 443.676 230.349 443.676 231.149Z" fill="url(#paint7_linear_731_44)"/>
<path d="M313.3 281.071L313.33 347.216C313.331 347.358 313.278 347.494 313.183 347.597C313.088 347.7 312.958 347.762 312.82 347.769L273.324 349.691C273.251 349.695 273.177 349.684 273.108 349.658C273.039 349.632 272.976 349.592 272.923 349.54C272.869 349.488 272.827 349.426 272.798 349.356C272.769 349.287 272.754 349.213 272.754 349.137V190.474C272.754 190.115 272.934 189.926 273.294 189.905C287.654 189.106 301.845 188.42 315.865 187.846C339.686 186.862 367.992 191.842 377.277 217.737C385.288 240.098 379.588 266.378 356.637 276.168C356.117 276.393 355.982 276.767 356.232 277.29L389.953 345.772C389.987 345.837 390.003 345.911 390.001 345.985C389.998 346.06 389.977 346.132 389.94 346.195C389.902 346.259 389.849 346.311 389.785 346.347C389.722 346.383 389.65 346.402 389.578 346.402L346.451 346.755C345.921 346.755 345.541 346.514 345.311 346.033L314.035 280.886C313.545 279.862 313.3 279.923 313.3 281.071ZM313.39 222.917L313.18 262.29C313.178 262.336 313.185 262.382 313.201 262.425C313.217 262.467 313.241 262.506 313.271 262.539C313.302 262.573 313.339 262.599 313.38 262.617C313.422 262.635 313.466 262.644 313.51 262.644L320.066 262.675C322.613 262.689 325.138 262.217 327.497 261.283C329.856 260.35 332.002 258.974 333.813 257.234C335.624 255.494 337.064 253.425 338.051 251.144C339.038 248.863 339.553 246.415 339.566 243.94V241.574C339.593 236.577 337.575 231.774 333.958 228.221C330.34 224.667 325.419 222.654 320.276 222.625L313.72 222.594C313.635 222.594 313.554 222.627 313.492 222.687C313.431 222.747 313.394 222.83 313.39 222.917Z" fill="url(#paint8_linear_731_44)"/>
<path d="M579.936 246.53L558.126 318.362C557.906 319.11 558.176 319.499 558.936 319.53C566.616 319.786 574.881 320.175 583.732 320.698C587.552 320.913 590.082 323.234 591.322 327.66C594.092 337.618 596.932 347.639 599.842 357.72C600.032 358.386 599.787 358.683 599.107 358.612C568.146 355.292 537.105 352.582 505.984 350.482C505.264 350.431 505.024 350.057 505.264 349.36L558.981 195.245C559.211 194.59 559.661 194.298 560.331 194.369L604.402 198.857C605.072 198.929 605.507 199.292 605.707 199.948L656.424 365.712C656.439 365.766 656.442 365.823 656.43 365.878C656.418 365.933 656.394 365.984 656.358 366.027C656.322 366.07 656.277 366.103 656.225 366.123C656.174 366.143 656.118 366.15 656.064 366.142L614.273 360.333C614.076 360.306 613.891 360.22 613.739 360.087C613.587 359.953 613.476 359.777 613.418 359.58L580.791 246.545C580.511 245.572 580.226 245.567 579.936 246.53Z" fill="url(#paint9_linear_731_44)"/>
<path d="M768 342.799V343.66L755.669 383.31C755.499 383.863 755.139 384.084 754.589 383.971C726.258 378.274 698.522 373.239 671.381 368.864C670.781 368.761 670.481 368.398 670.481 367.773C670.511 326.585 670.511 285.608 670.481 244.841C670.466 228.919 663.461 216.778 652.421 206.496C651.451 205.595 651.616 205.247 652.916 205.451C671.806 208.371 690.872 211.87 710.113 215.948C710.473 216.02 710.653 216.24 710.653 216.609L710.638 330.75C710.638 330.975 710.716 331.194 710.858 331.368C711 331.541 711.198 331.66 711.418 331.703L768 342.799Z" fill="url(#paint10_linear_731_44)"/>
<path d="M0 333.229V230.445L39.3614 219.579C39.8714 219.436 40.1264 219.636 40.1264 220.179C40.1964 251.162 40.1914 282.554 40.1114 314.356C40.0964 322.763 40.8764 336.687 52.3818 334.089C63.9622 331.477 64.1572 316.769 64.0822 306.857C63.8522 277.206 63.7322 246.536 63.7222 214.846C63.7222 214.262 64.0022 213.919 64.5622 213.816L103.339 206.762C103.939 206.649 104.239 206.906 104.239 207.531C104.289 241.085 104.269 273.328 104.179 304.259C104.159 311.841 103.714 319.228 102.844 326.421C100.668 344.494 90.9031 360.723 75.1226 369.252C52.9968 381.224 16.1556 386.327 4.50015 357.296C1.97007 351.005 0.470016 342.983 0 333.229Z" fill="url(#paint11_linear_731_44)"/>
<path d="M220.807 91.3083C220.761 107.523 233.81 112.98 247.316 110.056C263.005 106.668 275.57 98.4069 285.012 85.2728C289.468 79.0811 290.079 69.8246 280.449 68.3705C272.788 67.2135 266.927 69.2461 260.304 72.686C256.168 74.8438 251.818 69.7465 253.589 65.5717C254.128 64.3 255.389 62.9814 257.373 61.6158C268.194 54.1576 286.538 50.061 297.633 58.4418C313.368 70.3094 307.233 92.1213 297.267 105.209C287.713 117.748 275.392 126.786 260.304 132.321C246.828 137.262 228.712 137.778 217.22 129.46C201.165 117.842 199.486 98.8604 207.056 81.3952C211.553 71.0338 218.853 61.1885 228.956 51.8591C249.941 32.4863 277.305 19.0708 305.661 20.2122C340.167 21.6194 359.656 47.7156 351.888 82.3646C347.584 101.586 338.524 118.009 324.707 131.633C298.915 157.073 263.386 175.413 227.003 177.587C213.725 178.384 200.051 176.852 188.056 171.082C170.016 162.389 161.836 144.048 164.309 123.94C165.723 112.453 170.332 101.237 178.136 90.292C178.236 90.1506 178.365 90.0339 178.512 89.9501C178.66 89.8663 178.823 89.8175 178.99 89.8072C179.641 89.7655 180.114 90.0418 180.409 90.6359C180.593 91.0008 180.638 91.3812 180.547 91.7774C176.655 108.289 172.107 127.318 184.072 141.687C211.802 175.03 273.479 142.91 297.633 123.94C315.184 110.165 340.442 73.4365 327.76 49.6232C320.419 35.848 305.035 31.6263 290.445 33.1274C272.599 34.9515 256.6 42.0554 242.448 54.439C232.039 63.5547 220.837 77.3455 220.807 91.3083Z" fill="url(#paint12_linear_731_44)"/>
<defs>
<linearGradient id="paint0_linear_731_44" x1="392.49" y1="27.5933" x2="392.49" y2="164.82" gradientUnits="userSpaceOnUse">
<stop stop-color="#D5E7E3"/>
<stop offset="1" stop-color="#D3E6E5"/>
</linearGradient>
<linearGradient id="paint1_linear_731_44" x1="488.268" y1="28.0679" x2="488.268" y2="168.769" gradientUnits="userSpaceOnUse">
<stop stop-color="#D5E7E3"/>
<stop offset="1" stop-color="#D3E6E5"/>
</linearGradient>
<linearGradient id="paint2_linear_731_44" x1="599.997" y1="34.1577" x2="599.997" y2="173.885" gradientUnits="userSpaceOnUse">
<stop stop-color="#D5E7E3"/>
<stop offset="1" stop-color="#D3E6E5"/>
</linearGradient>
<linearGradient id="paint3_linear_731_44" x1="115.029" y1="36.9653" x2="115.029" y2="190.88" gradientUnits="userSpaceOnUse">
<stop stop-color="#D5E7E3"/>
<stop offset="1" stop-color="#D3E6E5"/>
</linearGradient>
<linearGradient id="paint4_linear_731_44" x1="658.567" y1="123.195" x2="658.567" y2="183.114" gradientUnits="userSpaceOnUse">
<stop stop-color="#D5E7E3"/>
<stop offset="1" stop-color="#D3E6E5"/>
</linearGradient>
<linearGradient id="paint5_linear_731_44" x1="702.627" y1="131.895" x2="702.627" y2="190.759" gradientUnits="userSpaceOnUse">
<stop stop-color="#D5E7E3"/>
<stop offset="1" stop-color="#D3E6E5"/>
</linearGradient>
<linearGradient id="paint6_linear_731_44" x1="188.07" y1="180.12" x2="188.07" y2="370.148" gradientUnits="userSpaceOnUse">
<stop stop-color="#D5E7E3"/>
<stop offset="1" stop-color="#D3E6E5"/>
</linearGradient>
<linearGradient id="paint7_linear_731_44" x1="453.712" y1="186.887" x2="453.712" y2="349.428" gradientUnits="userSpaceOnUse">
<stop stop-color="#D5E7E3"/>
<stop offset="1" stop-color="#D3E6E5"/>
</linearGradient>
<linearGradient id="paint8_linear_731_44" x1="331.377" y1="187.731" x2="331.377" y2="349.692" gradientUnits="userSpaceOnUse">
<stop stop-color="#D5E7E3"/>
<stop offset="1" stop-color="#D3E6E5"/>
</linearGradient>
<linearGradient id="paint9_linear_731_44" x1="580.805" y1="194.359" x2="580.805" y2="366.145" gradientUnits="userSpaceOnUse">
<stop stop-color="#D5E7E3"/>
<stop offset="1" stop-color="#D3E6E5"/>
</linearGradient>
<linearGradient id="paint10_linear_731_44" x1="709.899" y1="205.395" x2="709.899" y2="384" gradientUnits="userSpaceOnUse">
<stop stop-color="#D5E7E3"/>
<stop offset="1" stop-color="#D3E6E5"/>
</linearGradient>
<linearGradient id="paint11_linear_731_44" x1="52.1326" y1="206.736" x2="52.1326" y2="378.76" gradientUnits="userSpaceOnUse">
<stop stop-color="#D5E7E3"/>
<stop offset="1" stop-color="#D3E6E5"/>
</linearGradient>
<linearGradient id="paint12_linear_731_44" x1="263.805" y1="10.9978" x2="263.805" y2="168.636" gradientUnits="userSpaceOnUse">
<stop stop-color="#2CC1F0"/>
<stop offset="1" stop-color="#2564C2"/>
</linearGradient>
</defs>
</svg>
