<svg width="271" height="220" viewBox="0 0 271 220" fill="none" xmlns="http://www.w3.org/2000/svg">
<path d="M81.3246 99.2243C81.2591 121.832 99.8992 129.441 119.193 125.364C141.605 120.64 159.554 109.122 173.042 90.809C179.408 82.1758 180.28 69.2695 166.524 67.242C155.579 65.6287 147.208 68.4628 137.746 73.2591C131.838 76.2677 125.625 69.1605 128.153 63.3395C128.924 61.5664 130.726 59.7278 133.56 57.8239C149.017 47.4247 175.222 41.7128 191.072 53.3982C213.549 69.9453 204.785 100.358 190.548 118.606C176.901 136.09 159.3 148.691 137.746 156.409C118.496 163.298 92.6175 164.017 76.2013 152.419C53.2664 136.221 50.8683 109.754 61.6817 85.4023C68.1057 70.9554 78.534 57.2279 92.9664 44.2199C122.943 17.2082 162.033 -1.49716 202.539 0.0943272C251.832 2.05643 279.672 38.4426 268.575 86.754C262.427 113.555 249.484 140.133 229.747 159.13C192.903 194.6 142.15 216.493 90.1758 219.523C71.2088 220.635 51.6749 218.499 34.5392 210.454C8.77022 198.332 -2.91523 172.76 0.616556 144.723C2.6368 128.707 9.22076 113.068 20.3684 97.8072C20.5119 97.6102 20.6957 97.4474 20.9068 97.3306C21.1179 97.2137 21.351 97.1457 21.5893 97.1314C22.5195 97.0732 23.1953 97.4584 23.6168 98.2869C23.8784 98.7955 23.9438 99.326 23.813 99.8783C18.2537 122.9 11.757 149.432 28.8491 169.468C68.4609 215.958 156.567 171.173 191.072 144.723C216.143 125.517 252.224 74.3056 234.107 41.1023C223.621 21.8955 201.645 16.0092 180.803 18.1021C155.311 20.6456 132.456 30.5506 112.239 47.8171C97.3702 60.5272 81.3682 79.7558 81.3246 99.2243Z" fill="url(#paint0_linear_689_145)"/>
<defs>
<linearGradient id="paint0_linear_689_145" x1="142.747" y1="-12.7534" x2="142.747" y2="207.043" gradientUnits="userSpaceOnUse">
<stop stop-color="#2CC1F0"/>
<stop offset="1" stop-color="#2564C2"/>
</linearGradient>
</defs>
</svg>
