<svg width="211" height="174" viewBox="0 0 211 174" fill="none" xmlns="http://www.w3.org/2000/svg">
<g filter="url(#filter0_d_689_145)">
<path d="M66.642 75.5492C66.5948 91.8514 80.0359 97.3379 93.9485 94.3982C110.109 90.9921 123.052 82.6864 132.778 69.4811C137.369 63.2558 137.997 53.9492 128.078 52.4872C120.186 51.3239 114.149 53.3676 107.327 56.8261C103.066 58.9955 98.5861 53.8706 100.41 49.6733C100.965 48.3947 102.265 47.0689 104.308 45.696C115.454 38.1973 134.35 34.0785 145.779 42.5047C161.987 54.4366 155.667 76.3667 145.402 89.5248C135.561 102.133 122.869 111.219 107.327 116.784C93.4455 121.752 74.7852 122.271 62.9477 113.907C46.4097 102.227 44.6804 83.1423 52.4778 65.5824C57.1101 55.165 64.6298 45.2663 75.0368 35.8864C96.6525 16.4086 124.839 2.92042 154.048 4.06802C189.592 5.48287 209.667 31.7204 201.666 66.5571C197.232 85.8829 187.9 105.048 173.667 118.746C147.1 144.323 110.502 160.11 73.0245 162.295C59.3477 163.097 45.2621 161.556 32.9057 155.755C14.3241 147.015 5.89787 128.575 8.44459 108.358C9.90136 96.8087 14.649 85.5318 22.6874 74.5274C22.7908 74.3853 22.9234 74.268 23.0756 74.1837C23.2278 74.0994 23.3959 74.0504 23.5677 74.0401C24.2385 73.9982 24.7258 74.2759 25.0298 74.8733C25.2184 75.2401 25.2656 75.6226 25.1712 76.0209C21.1625 92.6217 16.4778 111.754 28.8027 126.201C57.3662 159.724 120.898 127.43 145.779 108.358C163.858 94.5082 189.875 57.5807 176.811 33.6383C169.25 19.7885 153.404 15.544 138.375 17.0532C119.992 18.8872 103.512 26.0296 88.9337 38.4803C78.2123 47.6453 66.6734 61.5108 66.642 75.5492Z" fill="url(#paint0_linear_689_145)"/>
</g>
<defs>
<filter id="filter0_d_689_145" x="0.7" y="0.7" width="210.014" height="173.092" filterUnits="userSpaceOnUse" color-interpolation-filters="sRGB">
<feFlood flood-opacity="0" result="BackgroundImageFix"/>
<feColorMatrix in="SourceAlpha" type="matrix" values="0 0 0 0 0 0 0 0 0 0 0 0 0 0 0 0 0 0 127 0" result="hardAlpha"/>
<feOffset dy="4"/>
<feGaussianBlur stdDeviation="3.65"/>
<feComposite in2="hardAlpha" operator="out"/>
<feColorMatrix type="matrix" values="0 0 0 0 0 0 0 0 0 0 0 0 0 0 0 0 0 0 1 0"/>
<feBlend mode="normal" in2="BackgroundImageFix" result="effect1_dropShadow_689_145"/>
<feBlend mode="normal" in="SourceGraphic" in2="effect1_dropShadow_689_145" result="shape"/>
</filter>
<linearGradient id="paint0_linear_689_145" x1="110.933" y1="-5.19632" x2="110.933" y2="153.296" gradientUnits="userSpaceOnUse">
<stop stop-color="#2CC1F0"/>
<stop offset="1" stop-color="#2564C2"/>
</linearGradient>
</defs>
</svg>
